<svg id="Layer_1" data-name="Layer 1" xmlns="http://www.w3.org/2000/svg" viewBox="0 0 344.7 128.99"><title>Artboard 1</title><path d="M42.84,1.5C57.06,1.5,65,4.92,71.1,10.32A33.61,33.61,0,0,1,82.8,35.7c0,8.28-4,16.74-8.1,21.06C85.86,62.34,93.6,74.94,93.6,89a38,38,0,0,1-11.52,27.17c-7,7-16.74,11.34-32.94,11.34H0V1.5ZM24.3,50.1H41.4c7.56,0,11-1.8,13.5-4.5a13,13,0,0,0,0-18c-2.52-2.7-5.94-4.5-13.5-4.5H24.3v27Zm24.3,55.79c8.46,0,13.14-2.16,16.2-5.58a17,17,0,0,0,0-23c-3.06-3.42-7.74-5.57-16.2-5.57H24.3v34.19Z"/><path d="M224.57,129H195.93L184.05,101.1h-48.6L123.57,129H94.93L150.21,0h19.08Zm-26.66-3H220L167.31,3H152.19L99.48,126h22.11L133.47,98.1H186ZM178,79.5h-36.6l18.3-42.56Zm-32-3H173.4l-13.74-32Z"/><path d="M261,71.7v55.79H236.7V1.5h45.9c13,0,21.24,3.6,27.54,9.36a35.26,35.26,0,0,1,0,51.48,32.45,32.45,0,0,1-12.6,7.38l47.16,57.77H314.64L269.82,71.7Zm20.16-21.6c7,0,10.08-1.44,12.24-3.78a14.68,14.68,0,0,0,0-19.26c-2.16-2.34-5.22-4-12.24-4H261v27Z"/></svg>