<?xml version="1.0" encoding="utf-8"?>
<!-- Generator: Adobe Illustrator 16.0.0, SVG Export Plug-In . SVG Version: 6.00 Build 0)  -->
<!DOCTYPE svg PUBLIC "-//W3C//DTD SVG 1.1//EN" "http://www.w3.org/Graphics/SVG/1.1/DTD/svg11.dtd">
<svg version="1.1" id="Layer_1" xmlns="http://www.w3.org/2000/svg" xmlns:xlink="http://www.w3.org/1999/xlink" x="0px" y="0px"
	 width="799.92px" height="799.92px" viewBox="0 0 799.92 799.92" enable-background="new 0 0 799.92 799.92" xml:space="preserve">
<g>
	<g>
		<path fill="#CCCCCC" d="M270.33,335.083c14.219,0,22.139,3.419,28.259,8.819c7.02,6.119,11.699,15.119,11.699,25.379
			c0,8.279-3.96,16.739-8.1,21.059c11.159,5.58,18.899,18.18,18.899,32.219c0,10.62-4.5,20.339-11.52,27.179
			c-7.02,7.02-16.739,11.34-32.938,11.34h-49.138V335.083H270.33z M251.791,383.681h17.1c7.559,0,10.979-1.8,13.499-4.5
			c2.159-2.34,3.6-5.58,3.6-9c0-3.419-1.44-6.659-3.6-8.999c-2.521-2.7-5.94-4.5-13.499-4.5h-17.1V383.681z M276.09,439.478
			c8.459,0,13.139-2.16,16.199-5.579c2.88-3.06,4.5-7.021,4.5-11.52c0-4.5-1.62-8.46-4.5-11.52c-3.061-3.42-7.74-5.58-16.199-5.58
			h-24.299v34.198H276.09z"/>
		<path fill="#CCCCCC" d="M452.064,462.577h-28.646l-11.879-27.898h-48.595l-11.88,27.898H322.42l55.283-128.994h19.078
			L452.064,462.577z M425.402,459.577h22.111l-52.711-122.994h-15.121l-52.713,122.994h22.113l11.879-27.898h52.562L425.402,459.577
			z M405.449,413.079h-36.595l18.298-42.556L405.449,413.079z M373.41,410.079h27.482l-13.74-31.961L373.41,410.079z"/>
		<path fill="#CCCCCC" d="M488.491,405.279v55.798h-24.299V335.083h45.897c12.96,0,21.24,3.6,27.539,9.359
			c6.84,6.479,11.16,15.659,11.16,25.738c0,10.08-4.32,19.26-11.16,25.739c-3.42,3.24-7.559,5.76-12.6,7.38l47.158,57.777h-30.059
			l-44.818-55.798H488.491z M508.65,383.681c7.02,0,10.08-1.44,12.24-3.78c2.159-2.34,3.6-5.939,3.6-9.539
			c0-3.78-1.44-7.38-3.6-9.72c-2.16-2.34-5.221-3.96-12.24-3.96h-20.159v26.999H508.65z"/>
	</g>
</g>
<g>
	<defs>
		<rect id="SVGID_1_" x="-0.08" y="-924" width="800" height="800"/>
	</defs>
	<clipPath id="SVGID_2_">
		<use xlink:href="#SVGID_1_"  overflow="visible"/>
	</clipPath>
	<g clip-path="url(#SVGID_2_)">
		<g>
			<g>
				<g>
					<g>
						<path d="M-33.339-83.541c10.673-10.673,18.265-12.497,24.301-12.874c8.976-0.614,17.684,2.593,23.892,8.802
							c5.293,5.293,8.176,13.344,8.286,18.561l0.087,4.068l3.86-1.286c10.939-3.645,24.231-0.152,33.078,8.693
							c6.6,6.601,10.315,15.787,10.193,25.242c0,10.231-4.44,19.233-14.396,29.188L23.34,29.478l-84.849-84.849L-33.339-83.541
							 M-14.206-33.947l2.122-2.121L0.007-48.159c5.253-5.254,7.419-9.726,7.239-14.968c-0.166-4.116-1.877-8.092-4.695-10.911
							c-2.817-2.817-6.795-4.53-10.928-4.695c-5.226-0.18-9.697,1.985-14.951,7.239l-12.091,12.092l-2.122,2.121l2.122,2.121
							l19.092,19.092L-14.206-33.947 M25.248,5.508l2.122-2.121l17.182-17.183c6.04-6.039,8.706-11.647,8.385-17.648
							c-0.162-5.056-2.18-9.662-5.838-13.32c-3.659-3.658-8.267-5.678-13.321-5.839c-6-0.32-11.609,2.345-17.649,8.384
							L-1.054-25.037l-2.122,2.121l2.122,2.121L23.127,3.387L25.248,5.508 M-35.461-85.662l-30.291,30.291L23.34,33.72L58.085-1.025
							c11.454-11.454,15.272-21.383,15.272-31.31c0.128-9.8-3.562-19.854-11.071-27.363c-9.929-9.929-24.31-13.363-36.146-9.417
							c-0.128-5.983-3.31-14.764-9.165-20.62c-7.254-7.253-16.926-10.308-26.219-9.673C-17.388-98.898-25.406-95.717-35.461-85.662
							L-35.461-85.662z M-14.206-38.189l-19.092-19.092l12.091-12.092c5.346-5.344,9.037-6.489,12.727-6.362
							c3.183,0.127,6.492,1.4,8.91,3.819c2.418,2.418,3.691,5.727,3.818,8.908c0.127,3.691-1.018,7.383-6.362,12.727L-14.206-38.189
							L-14.206-38.189z M25.248,1.265L1.067-22.916l17.182-17.182c5.981-5.982,10.818-7.764,15.4-7.51
							c4.198,0.127,8.146,1.782,11.327,4.964c3.182,3.181,4.836,7.128,4.964,11.327c0.253,4.582-1.528,9.418-7.51,15.399
							L25.248,1.265L25.248,1.265z"/>
					</g>
					<g>
						<path d="M242.555,4.184c-7.778,7.778-15.43,11.584-24.077,11.977c-8.938,0.236-17.634-3.201-23.862-9.43
							c-6.236-6.235-9.673-14.943-9.432-23.891c0.12-4.471,1.22-8.67,3.36-12.838l2.009-3.912l-4.375-0.441l-67.91-6.874
							l15.768-15.768l69.716,7.606l1.429,0.156l1.018-1.017l6.236-6.237l2.121-2.121l-2.121-2.121L175.101-98.06l12.939-12.938
							l84.849,84.848L242.555,4.184 M225.586-47.574l-2.121,2.121l-14.256,14.256c-5.055,5.055-7.041,8.984-6.859,13.568
							c0.162,4.055,2.062,8.277,5.076,11.291c3.097,3.098,7.365,5.043,11.422,5.205c4.692,0.188,8.789-1.826,13.694-6.732
							l14.255-14.255l2.122-2.121l-2.122-2.122l-19.09-19.09L225.586-47.574 M244.676,6.305l32.455-32.455l-89.091-89.091
							L170.857-98.06l39.455,39.454l-6.237,6.237l-71.146-7.763l-21.255,21.254l74.201,7.51c-2.42,4.709-3.565,9.417-3.692,14.127
							c-0.254,9.418,3.183,18.965,10.311,26.092c7.126,7.127,16.672,10.562,26.091,10.309
							C227.111,18.779,235.513,15.469,244.676,6.305L244.676,6.305z M225.586-43.332l19.09,19.091L230.421-9.986
							c-4.964,4.964-8.272,5.982-11.454,5.855c-3.182-0.128-6.746-1.654-9.42-4.328c-2.545-2.545-4.071-6.109-4.199-9.29
							c-0.127-3.183,1.02-6.364,5.982-11.327L225.586-43.332L225.586-43.332z"/>
					</g>
				</g>
			</g>
		</g>
		<g>
			<g>
				<g>
					<g>
						<path d="M158.131,107.929c10.673-10.673,18.266-12.497,24.301-12.874c8.977-0.615,17.684,2.594,23.893,8.803
							c5.293,5.293,8.175,13.343,8.285,18.561l0.088,4.067l3.859-1.286c10.939-3.645,24.232-0.152,33.078,8.693
							c6.6,6.601,10.315,15.788,10.194,25.243c0,10.23-4.44,19.233-14.396,29.188l-32.624,32.623l-84.849-84.849L158.131,107.929
							 M177.264,157.523l2.121-2.121l12.092-12.092c5.254-5.254,7.419-9.726,7.24-14.969c-0.166-4.115-1.877-8.091-4.696-10.91
							c-2.817-2.816-6.794-4.529-10.927-4.695c-5.226-0.179-9.697,1.986-14.951,7.24l-12.091,12.092l-2.122,2.121l2.122,2.121
							l19.091,19.092L177.264,157.523 M216.719,196.979l2.121-2.121l17.183-17.183c6.039-6.039,8.706-11.648,8.384-17.648
							c-0.162-5.057-2.18-9.663-5.838-13.321s-8.266-5.677-13.322-5.839c-5.999-0.321-11.609,2.345-17.648,8.384l-17.182,17.183
							l-2.121,2.121l2.121,2.121l24.182,24.183L216.719,196.979 M156.01,105.808l-30.291,30.291l89.091,89.091l34.745-34.744
							c11.455-11.455,15.273-21.383,15.273-31.31c0.127-9.8-3.563-19.855-11.072-27.364c-9.928-9.928-24.31-13.363-36.146-9.418
							c-0.127-5.982-3.309-14.764-9.164-20.618c-7.254-7.254-16.928-10.309-26.219-9.673
							C174.082,92.571,166.063,95.754,156.01,105.808L156.01,105.808z M177.264,153.28l-19.091-19.091l12.091-12.092
							c5.346-5.345,9.036-6.49,12.727-6.362c3.183,0.127,6.491,1.4,8.909,3.817c2.418,2.419,3.691,5.729,3.818,8.91
							c0.128,3.69-1.018,7.381-6.362,12.727L177.264,153.28L177.264,153.28z M216.719,192.735l-24.182-24.182l17.182-17.183
							c5.982-5.98,10.818-7.762,15.4-7.508c4.199,0.127,8.146,1.781,11.328,4.963s4.835,7.128,4.963,11.328
							c0.254,4.582-1.527,9.418-7.51,15.399L216.719,192.735L216.719,192.735z"/>
						<path d="M327.666-61.607c7.778-7.777,15.43-11.584,24.077-11.977c8.938-0.235,17.634,3.201,23.863,9.431
							c6.235,6.235,9.673,14.942,9.431,23.891c-0.12,4.471-1.219,8.669-3.359,12.837l-2.011,3.912l4.376,0.443l67.912,6.873
							L436.187-0.43l-69.716-7.607l-1.43-0.155l-1.017,1.017l-6.237,6.236l-2.121,2.121l2.121,2.121l37.334,37.334l-12.939,12.939
							l-84.849-84.85L327.666-61.607 M344.636-9.849l2.121-2.121l14.256-14.256c5.055-5.055,7.04-8.985,6.858-13.569
							c-0.162-4.055-2.061-8.276-5.076-11.292c-3.096-3.095-7.365-5.041-11.421-5.202c-4.693-0.189-8.79,1.824-13.695,6.73
							l-14.255,14.255l-2.122,2.121l2.122,2.122l19.091,19.091L344.636-9.849 M325.545-63.729L293.09-31.273l89.092,89.092
							l17.182-17.182L359.909,1.182l6.236-6.236l71.146,7.763l21.255-21.255l-74.2-7.509c2.42-4.709,3.563-9.418,3.691-14.126
							c0.254-9.42-3.182-18.966-10.31-26.094c-7.127-7.127-16.673-10.562-26.091-10.308
							C343.109-76.202,334.709-72.892,325.545-63.729L325.545-63.729z M344.636-14.092l-19.091-19.091L339.8-47.438
							c4.964-4.964,8.273-5.982,11.455-5.855c3.181,0.129,6.745,1.654,9.419,4.328c2.545,2.545,4.071,6.11,4.2,9.291
							c0.127,3.182-1.02,6.363-5.983,11.327L344.636-14.092L344.636-14.092z"/>
						<g>
							<path d="M244.806,17.074l-12.091,12.091l50.914,127.278l17.945-17.945l-11.398-28.2l35.764-35.764l28.199,11.399
								l17.945-17.945L244.806,17.074z M305.886,67.718l-22.654,22.654l-3.222,3.222l-1.526-4.072l-14.938-37.594l-2.544-6.441
								l6.511,2.614l37.518,14.863l4.078,1.532L305.886,67.718z"/>
						</g>
					</g>
					<g>
						<path d="M603.561,26.118c-10.673,10.673-18.266,12.496-24.301,12.874c-8.977,0.615-17.684-2.594-23.893-8.803
							c-5.293-5.293-8.176-13.343-8.285-18.561l-0.088-4.067l-3.86,1.286C532.195,12.492,518.902,9,510.057,0.154
							c-6.6-6.601-10.316-15.788-10.194-25.243c0-10.23,4.44-19.233,14.396-29.188L546.881-86.9l84.85,84.849L603.561,26.118
							 M584.427-23.477l-2.121,2.121L570.215-9.264c-5.254,5.254-7.42,9.726-7.24,14.968c0.166,4.116,1.877,8.092,4.695,10.911
							c2.818,2.816,6.795,4.529,10.928,4.695c5.225,0.179,9.697-1.986,14.951-7.24L605.64,1.979l2.121-2.121l-2.121-2.121
							l-19.091-19.092L584.427-23.477 M544.973-62.932l-2.122,2.121l-17.182,17.183c-6.04,6.039-8.706,11.648-8.385,17.648
							c0.162,5.057,2.181,9.663,5.839,13.321s8.265,5.677,13.321,5.839c5.999,0.32,11.609-2.345,17.649-8.384l17.182-17.183
							l2.121-2.121l-2.121-2.121l-24.182-24.183L544.973-62.932 M605.682,28.239l30.291-30.291l-89.092-89.091l-34.744,34.744
							c-11.455,11.455-15.274,21.383-15.274,31.31c-0.127,9.8,3.563,19.854,11.073,27.364c9.928,9.928,24.309,13.363,36.146,9.418
							c0.127,5.982,3.309,14.763,9.164,20.618c7.254,7.254,16.927,10.309,26.219,9.673
							C587.609,41.476,595.627,38.293,605.682,28.239L605.682,28.239z M584.427-19.233l19.091,19.091l-12.091,12.092
							c-5.345,5.344-9.035,6.49-12.726,6.362c-3.183-0.127-6.492-1.4-8.909-3.817c-2.419-2.419-3.692-5.729-3.819-8.91
							c-0.127-3.69,1.019-7.382,6.363-12.727L584.427-19.233L584.427-19.233z M544.973-58.688l24.182,24.182l-17.183,17.182
							c-5.981,5.981-10.817,7.763-15.399,7.509c-4.199-0.127-8.146-1.781-11.328-4.963s-4.835-7.128-4.964-11.328
							c-0.253-4.581,1.528-9.418,7.51-15.399L544.973-58.688L544.973-58.688z"/>
						<path d="M434.024,195.654c-7.778,7.777-15.429,11.584-24.077,11.977c-8.938,0.235-17.633-3.201-23.862-9.431
							c-6.235-6.235-9.673-14.942-9.431-23.892c0.119-4.47,1.219-8.668,3.359-12.836l2.01-3.912l-4.375-0.443l-67.912-6.873
							l15.768-15.768l69.717,7.607l1.43,0.155l1.016-1.017l6.237-6.236l2.122-2.121l-2.122-2.122L366.57,93.41l12.939-12.939
							l84.849,84.85L434.024,195.654 M417.056,143.896l-2.122,2.121l-14.255,14.255c-5.055,5.055-7.04,8.986-6.859,13.57
							c0.163,4.055,2.062,8.275,5.077,11.291c3.096,3.096,7.364,5.042,11.421,5.203c4.693,0.189,8.79-1.824,13.695-6.73
							l14.255-14.255l2.121-2.122l-2.121-2.121l-19.091-19.091L417.056,143.896 M436.146,197.775l32.455-32.455L379.51,76.229
							L362.328,93.41l39.454,39.455l-6.237,6.236l-71.146-7.763l-21.255,21.255l74.201,7.508c-2.42,4.71-3.564,9.419-3.691,14.127
							c-0.254,9.42,3.182,18.965,10.31,26.094c7.127,7.127,16.673,10.562,26.091,10.308
							C418.582,210.249,426.982,206.938,436.146,197.775L436.146,197.775z M417.056,148.138l19.091,19.091l-14.256,14.256
							c-4.963,4.964-8.272,5.982-11.455,5.855c-3.18-0.129-6.744-1.654-9.418-4.328c-2.545-2.545-4.072-6.11-4.2-9.291
							c-0.127-3.182,1.019-6.363,5.982-11.327L417.056,148.138L417.056,148.138z"/>
						<g>
							<path d="M516.865,116.953l12.092-12.091L478.043-22.416L460.098-4.471l11.398,28.2l-35.764,35.765l-28.199-11.4
								l-17.945,17.945L516.865,116.953z M455.786,66.31l22.654-22.654l3.222-3.222l1.536,4.082l14.943,37.599l2.546,6.444
								l-6.49-2.594L456.66,71.081l-4.096-1.55L455.786,66.31z"/>
						</g>
					</g>
				</g>
			</g>
		</g>
	</g>
</g>
<g>
	<defs>
		<rect id="SVGID_7_" x="1167.92" y="-924" width="800" height="800"/>
	</defs>
	<clipPath id="SVGID_4_">
		<use xlink:href="#SVGID_7_"  overflow="visible"/>
	</clipPath>
	<g clip-path="url(#SVGID_4_)">
	</g>
</g>
</svg>
